<?xml version="1.0" encoding="UTF-8" standalone="no"?>
<svg
   xmlns:dc="http://purl.org/dc/elements/1.1/"
   xmlns:cc="http://creativecommons.org/ns#"
   xmlns:rdf="http://www.w3.org/1999/02/22-rdf-syntax-ns#"
   xmlns:svg="http://www.w3.org/2000/svg"
   xmlns="http://www.w3.org/2000/svg"
   xmlns:sodipodi="http://sodipodi.sourceforge.net/DTD/sodipodi-0.dtd"
   xmlns:inkscape="http://www.inkscape.org/namespaces/inkscape"
   version="1.1"
   id="Layer_1"
   x="0px"
   y="0px"
   width="100"
   height="100"
   viewBox="0 0 841.39577 841.89"
   enable-background="new 0 0 595.28 841.89"
   xml:space="preserve"
   inkscape:version="0.48.1 r9760"
   sodipodi:docname="seed.svg"
   inkscape:export-filename="/Users/SlicedBread/Sites/civicsgarden/public/images/status-reseed.png"
   inkscape:export-xdpi="180"
   inkscape:export-ydpi="180"><metadata
   id="metadata9"><rdf:RDF><cc:Work
       rdf:about=""><dc:format>image/svg+xml</dc:format><dc:type
         rdf:resource="http://purl.org/dc/dcmitype/StillImage" /><dc:title></dc:title></cc:Work></rdf:RDF></metadata><defs
   id="defs7" /><sodipodi:namedview
   pagecolor="#ffffff"
   bordercolor="#666666"
   borderopacity="1"
   objecttolerance="10"
   gridtolerance="10"
   guidetolerance="10"
   inkscape:pageopacity="0"
   inkscape:pageshadow="2"
   inkscape:window-width="1112"
   inkscape:window-height="689"
   id="namedview5"
   showgrid="false"
   inkscape:zoom="2.62"
   inkscape:cx="-16.915523"
   inkscape:cy="50"
   inkscape:window-x="0"
   inkscape:window-y="58"
   inkscape:window-maximized="0"
   inkscape:current-layer="Layer_1" />

<path
   style="color:#000000;fill:#000000;fill-opacity:1;stroke:#000000;stroke-width:3.38489747;stroke-linecap:square;stroke-linejoin:miter;stroke-miterlimit:4;stroke-opacity:1;stroke-dashoffset:0;marker:none;visibility:visible;display:inline;overflow:visible;enable-background:accumulate"
   d="m 235.54356,195.01801 c -20.49395,-0.64835 -37.12974,6.35046 -48.8495,26.35729 -46.49459,79.37106 20.24933,224.19029 148.32128,323.1039 128.07195,98.91364 265.4242,111.36323 315.55205,34.99157 C 705.298,496.08661 722.38603,234.5007 502.24611,256.36686 393.89961,267.12875 297.02543,196.96296 235.54356,195.01801 z m 255.86898,120.1983 c 15.32249,-0.10753 35.53972,2.10308 57.31938,6.81653 43.55931,9.42692 74.5954,24.48093 73.07729,34.76436 -3.20336,21.69885 -40.20254,42.50286 -84.50177,0.68164 -111.05949,-104.84704 -76.50126,-24.97748 -73.07728,-34.76434 1.69214,-4.8367 11.85989,-7.39068 27.18238,-7.49819 z"
   id="path2986"
   inkscape:connector-curvature="0"
   sodipodi:nodetypes="ssssssssssss" /></svg>