<svg xmlns="http://www.w3.org/2000/svg" xmlns:svg="http://www.w3.org/2000/svg" id="Layer_1" width="100" height="100" x="0" y="0" enable-background="new 0 0 595.28 841.89" version="1.1" viewBox="0 0 841.396 841.89" xml:space="preserve"><metadata id="metadata9"/><path style="color:#000;fill:#000;fill-opacity:1;stroke:#000;stroke-width:3.38489747;stroke-linecap:square;stroke-linejoin:miter;stroke-miterlimit:4;stroke-opacity:1;stroke-dashoffset:0;marker:none;visibility:visible;display:inline;overflow:visible;enable-background:accumulate" id="path2986" d="m 235.54356,195.01801 c -20.49395,-0.64835 -37.12974,6.35046 -48.8495,26.35729 -46.49459,79.37106 20.24933,224.19029 148.32128,323.1039 128.07195,98.91364 265.4242,111.36323 315.55205,34.99157 C 705.298,496.08661 722.38603,234.5007 502.24611,256.36686 393.89961,267.12875 297.02543,196.96296 235.54356,195.01801 z m 255.86898,120.1983 c 15.32249,-0.10753 35.53972,2.10308 57.31938,6.81653 43.55931,9.42692 74.5954,24.48093 73.07729,34.76436 -3.20336,21.69885 -40.20254,42.50286 -84.50177,0.68164 -111.05949,-104.84704 -76.50126,-24.97748 -73.07728,-34.76434 1.69214,-4.8367 11.85989,-7.39068 27.18238,-7.49819 z"/></svg>