<svg xmlns="http://www.w3.org/2000/svg" xmlns:svg="http://www.w3.org/2000/svg" id="Layer_1" width="100" height="100" x="0" y="0" enable-background="new 0 0 82 100" version="1.1" viewBox="0 0 100 100" xml:space="preserve"><metadata id="metadata9"/><path id="path3" d="m 78.191218,31.490404 0.01155,-0.01244 L 52.450381,4.8221932 26.698884,31.478856 l 0.01155,0.01244 c -6.595546,6.593769 -10.679898,15.698731 -10.679898,25.73995 0,20.081548 16.338298,36.419847 36.419847,36.419847 20.081549,0 36.419847,-16.338299 36.419847,-36.419847 0,-10.041219 -4.084352,-19.146181 -10.67901,-25.740838 z m -42.699162,8.782513 16.958325,-17.862603 16.958325,17.862603 -0.0071,0.0071 c 4.342845,4.343733 7.032584,10.339684 7.032584,16.951219 0,0.02931 -0.0018,0.05863 -0.0018,0.08972 -0.395288,-0.08172 -0.834103,-0.12969 -1.330657,-0.12969 -2.020857,0 -3.100128,0.781694 -4.052374,1.471894 -0.911384,0.660887 -1.700185,1.232946 -3.418136,1.232946 -1.825433,0 -2.646212,-0.582718 -3.594905,-1.257818 -0.954022,-0.678652 -2.036847,-1.447022 -4.035497,-1.447022 -2.020857,0 -3.100128,0.781694 -4.052374,1.471894 -0.911385,0.660887 -1.700185,1.232946 -3.419024,1.232946 -1.824546,0 -2.645325,-0.582718 -3.594906,-1.257818 -0.954022,-0.678652 -2.035958,-1.447022 -4.034608,-1.447022 -2.020858,0 -3.100129,0.781694 -4.052374,1.471894 -0.911385,0.660887 -1.700185,1.232946 -3.419025,1.232946 -1.824545,0 -2.645324,-0.582718 -3.594905,-1.257818 -0.954022,-0.678652 -2.035958,-1.447022 -4.034608,-1.447022 -0.496554,0 -0.935369,0.04797 -1.330657,0.12969 0,-0.0302 -0.0018,-0.05952 -0.0018,-0.08972 0,-6.611535 2.689739,-12.607486 7.032584,-16.951219 l -0.0071,-0.0071 z m 16.958325,40.942127 c -10.761621,0 -19.889678,-7.124966 -22.916967,-16.905028 0.08794,-0.0044 0.17144,-0.01244 0.265599,-0.01244 1.431921,0 2.126563,0.493889 3.005969,1.118356 1.046405,0.744386 2.231382,1.586484 4.623544,1.586484 2.294451,0 3.446562,-0.834103 4.461876,-1.571383 0.873188,-0.63335 1.563388,-1.133457 3.008635,-1.133457 1.431921,0 2.126563,0.493889 3.005969,1.118356 1.047293,0.744386 2.232271,1.586484 4.624433,1.586484 2.29445,0 3.445673,-0.834103 4.462763,-1.571383 0.8723,-0.63335 1.563389,-1.133457 3.008635,-1.133457 1.431922,0 2.127452,0.493889 3.00597,1.118356 1.046404,0.744386 2.231382,1.586484 4.624432,1.586484 2.294451,0 3.445673,-0.834103 4.461876,-1.571383 0.8723,-0.63335 1.563388,-1.133457 3.008634,-1.133457 0.09327,0 0.17677,0.008 0.265599,0.01244 -3.027289,9.780062 -12.155346,16.905028 -22.916967,16.905028 z"/><path style="fill:none;stroke:#000;stroke-width:1px;stroke-linecap:butt;stroke-linejoin:miter;stroke-opacity:1" id="path2986" d="M 24.045802,60.305344 81.29771,63.358779 61.450382,88.167939 32.061069,79.007634 z"/></svg>