<svg xmlns="http://www.w3.org/2000/svg" xmlns:svg="http://www.w3.org/2000/svg" xmlns:xlink="http://www.w3.org/1999/xlink" id="svg6921" width="100" height="100" version="1.1"><defs id="defs6923"><linearGradient id="linearGradient8358"><stop id="stop8360" offset="0" style="stop-color:#f15030;stop-opacity:1"/><stop id="stop8362" offset="1" style="stop-color:#a3240b;stop-opacity:1"/></linearGradient><linearGradient id="linearGradient8334"><stop style="stop-color:#f15030;stop-opacity:1" id="stop8336" offset="0"/><stop style="stop-color:#a3240b;stop-opacity:1" id="stop8338" offset="1"/></linearGradient><clipPath id="clipPath1024" clipPathUnits="userSpaceOnUse"><path id="path1026" d="M 0,400 400,400 400,0 0,0 0,400 z"/></clipPath><linearGradient id="linearGradient10928" x1="7.897" x2="52.575" y1="30.043" y2="-42.222" gradientTransform="matrix(1.0284072,0,0,1,1.3320924,0)" gradientUnits="userSpaceOnUse" xlink:href="#linearGradient8334"/><linearGradient id="linearGradient10930" x1="-85.907" x2="-10.087" y1="-15.77" y2="-129.621" gradientTransform="matrix(1.0284072,0,0,1,1.3349502,0)" gradientUnits="userSpaceOnUse" xlink:href="#linearGradient8334"/><linearGradient id="linearGradient10932" x1="-14.512" x2="-41.254" y1="-301.406" y2="25.149" gradientTransform="matrix(1.0284072,0,0,1,0.41496395,0)" gradientUnits="userSpaceOnUse" xlink:href="#linearGradient8334"/><linearGradient id="linearGradient10934" x1="-94.212" x2="-53.498" y1="-19.193" y2="-170.54" gradientTransform="matrix(1.0284072,0,0,1,0.79776763,0)" gradientUnits="userSpaceOnUse" xlink:href="#linearGradient8358"/><radialGradient id="radialGradient7303" cx="231.87" cy="1000.954" r="71.565" fx="231.87" fy="1000.954" gradientTransform="matrix(1,0,0,0.33333332,0,667.30283)" gradientUnits="userSpaceOnUse" xlink:href="#linearGradient6908-4"/><linearGradient id="linearGradient6908-4"><stop style="stop-color:#5a4a2a;stop-opacity:1" id="stop6910-0" offset="0"/><stop style="stop-color:#5a4a2a;stop-opacity:0" id="stop6912-2" offset="1"/></linearGradient><radialGradient id="radialGradient10991" cx="231.87" cy="1000.954" r="71.565" fx="231.87" fy="1000.954" gradientTransform="matrix(1,0,0,0.33333332,0,667.30283)" gradientUnits="userSpaceOnUse" xlink:href="#linearGradient6908-4"/><radialGradient id="radialGradient10991-5" cx="231.87" cy="1000.954" r="71.565" fx="231.87" fy="1000.954" gradientTransform="matrix(1,0,0,0.33333332,0,667.30283)" gradientUnits="userSpaceOnUse" xlink:href="#linearGradient6908-4-9"/><linearGradient id="linearGradient6908-4-9"><stop style="stop-color:#5a4a2a;stop-opacity:1" id="stop6910-0-9" offset="0"/><stop style="stop-color:#5a4a2a;stop-opacity:0" id="stop6912-2-2" offset="1"/></linearGradient><radialGradient id="radialGradient11008" cx="158.837" cy="994.005" r="71.565" fx="158.837" fy="994.005" gradientTransform="matrix(2.0465527,0.13718148,-0.00649131,0.33311583,-171.55015,648.04571)" gradientUnits="userSpaceOnUse" xlink:href="#linearGradient6908-4-9"/></defs><metadata id="metadata6926"/><g id="layer1" transform="translate(0,-952.36218)"><g style="stroke:#000;stroke-width:.60405684;stroke-miterlimit:4;stroke-opacity:1;stroke-dasharray:none;display:inline" id="g8205" transform="matrix(0.36462353,0,0,-0.37042955,-25.750198,1076.6137)"><path style="opacity:.38034189000000002;color:#000;fill:url(#radialGradient11008);fill-opacity:1;fill-rule:nonzero;stroke:none;stroke-width:2;marker:none;visibility:visible;display:inline;overflow:visible;enable-background:accumulate" id="path6906-2" d="m 303.43511,1000.9542 a 71.564888,23.854961 0 1 1 -143.12977,0 71.564888,23.854961 0 1 1 143.12977,0 z" transform="matrix(0.91549925,0.18963861,0.10387715,-0.48588043,-69.32487,555.56559)"/><path style="color:#000;fill:url(#radialGradient10991);fill-opacity:1;fill-rule:nonzero;stroke:none;stroke-width:2;marker:none;visibility:visible;display:inline;overflow:visible;enable-background:accumulate" id="path6906" d="m 303.43511,1000.9542 a 71.564888,23.854961 0 1 1 -143.12977,0 71.564888,23.854961 0 1 1 143.12977,0 z" transform="matrix(0.93555122,0,0,-0.92089476,-25.667997,1026.0773)"/><g id="g10891" transform="matrix(0.98477326,0,0,1,3.163342,0)" style="stroke-width:.60870892"><g style="stroke:#000;stroke-width:1.88187921;stroke-miterlimit:4;stroke-opacity:1;stroke-dasharray:none" id="g8207" clip-path="url(#clipPath1024)" transform="matrix(0.98741258,0,0,1,2.3209334,0)"><g style="stroke:#000;stroke-width:1.88187921;stroke-miterlimit:4;stroke-opacity:1;stroke-dasharray:none" id="g8209" transform="translate(244.1572,177.0703)"><path style="fill:url(#linearGradient10928);fill-opacity:1;fill-rule:nonzero;stroke:#000;stroke-width:1.88187921;stroke-linecap:butt;stroke-linejoin:miter;stroke-miterlimit:4;stroke-opacity:1;stroke-dasharray:none" id="path8211" d="m 0,0 -0.03,-40.15 0.03,0 c 0,9.594 14.931,19.45 23.023,26.027 17.19,13.971 33.838,26.035 49.312,39.392 10.974,9.473 15.429,2.928 25.789,-0.85 5.222,18.638 6.942,23.98 -15.303,36.275 C 82.412573,50.618411 82.408522,48.465573 74.728829,41.439039 56.538809,24.796083 18.724443,9.1465768 -0.805,0.089"/></g><g style="stroke:#000;stroke-width:1.88187921;stroke-miterlimit:4;stroke-opacity:1;stroke-dasharray:none" id="g8241" transform="translate(244.2578,223.2432)"><path style="fill:url(#linearGradient10930);fill-opacity:1;fill-rule:nonzero;stroke:#000;stroke-width:1.88187921;stroke-linecap:butt;stroke-linejoin:miter;stroke-miterlimit:4;stroke-opacity:1;stroke-dasharray:none" id="path8243" d="m 0,0 -0.179,-114.778 0.011,-0.136 c -18.191,-18.191 -81.381,-16.91 -101.367,-2.151 l 0.077,-0.016 0.034,116.888"/></g><g style="stroke:#000;stroke-width:1.88187921;stroke-miterlimit:4;stroke-opacity:1;stroke-dasharray:none" id="g8245" transform="translate(244.1504,219.6958)"><path style="fill:#f15030;fill-opacity:1;fill-rule:nonzero;stroke:#000;stroke-width:1.88187921;stroke-miterlimit:4;stroke-opacity:1;stroke-dasharray:none" id="path8247" d="m 0,0 0.107,-4.192 c 1.505,-0.767 35.834,-12.728 46.552,-16.094 1.07,-0.336 2.866,1.621 3.614,1.994 C 38.883,-12.164 13.085,-5.608 0,0"/></g><g style="stroke:#000;stroke-width:1.88187921;stroke-miterlimit:4;stroke-opacity:1;stroke-dasharray:none" id="g8249" transform="translate(244.0254,219.6958)"><path style="fill:#231f20;fill-opacity:1;fill-rule:nonzero;stroke:#000;stroke-width:1.88187921;stroke-miterlimit:4;stroke-opacity:1;stroke-dasharray:none" id="path8251" d="M 0,0 C 0.036,-1.397 0.071,-2.794 0.107,-4.192 0.108,-4.233 0.13,-4.281 0.169,-4.3 c 2.227,-1.074 4.707,-1.764 7.03,-2.591 5.191,-1.847 10.395,-3.657 15.602,-5.457 5.359,-1.852 10.724,-3.688 16.101,-5.489 2.079,-0.696 4.161,-1.385 6.246,-2.058 0.537,-0.174 1.517,-0.712 2.101,-0.537 1.266,0.379 2.122,1.341 3.213,2.033 0.075,0.047 0.086,0.17 0,0.215 -7.496,3.974 -15.788,6.488 -23.819,9.121 C 17.789,-6.161 8.775,-3.537 0.188,0.108 0.041,0.17 -0.086,-0.045 0.062,-0.108 c 10.425,-4.425 21.431,-7.452 32.15,-11.068 5.349,-1.804 10.705,-3.68 15.825,-6.07 0.637,-0.297 2.493,-0.744 1.568,-1.454 -1.171,-0.899 -2.151,-1.67 -3.716,-1.171 -1.696,0.54 -3.385,1.099 -5.074,1.66 -8.894,2.952 -17.753,6.018 -26.6,9.112 -3.513,1.229 -7.024,2.464 -10.523,3.73 -0.921,0.333 -1.84,0.668 -2.754,1.02 -1.082,0.416 -0.625,1.87 -0.653,2.966 C 0.273,-0.922 0.262,-0.461 0.25,0 0.246,0.161 -0.004,0.161 0,0"/></g><g style="stroke:#000;stroke-width:1.88187921;stroke-miterlimit:4;stroke-opacity:1;stroke-dasharray:none" id="g8253" transform="translate(219.3281,232.8843)"><path style="fill:#f15030;fill-opacity:1;fill-rule:nonzero;stroke:#000;stroke-width:1.88187921;stroke-miterlimit:4;stroke-opacity:1;stroke-dasharray:none" id="path8255" d="m 0,0 c -14.644,1.193 -61.566,7.19 -74.374,-5.617 -7.848,-6.103 5.534,-16.106 48.853,-16.696 45.736,-0.624 68.417,15.204 32.775,20.813"/></g><g style="stroke:#000;stroke-width:1.88187921;stroke-miterlimit:4;stroke-opacity:1;stroke-dasharray:none" id="g8257" transform="translate(219.3281,232.9185)"><path style="fill:#231f20;fill-opacity:1;fill-rule:nonzero;stroke:#000;stroke-width:1.88187921;stroke-miterlimit:4;stroke-opacity:1;stroke-dasharray:none" id="path8259" d="m 0,0 c -18.012,1.595 -36.101,3.874 -54.185,1.776 -7.569,-0.877 -14.496,-2.654 -20.49,-7.434 -2.551,-2.034 -2.446,-4.859 -0.222,-7.086 4.366,-4.375 11.956,-5.818 17.723,-6.976 12.727,-2.556 26.014,-3.069 38.957,-2.771 11.256,0.26 23.001,1.356 33.672,5.169 3.076,1.099 10.678,3.928 9.352,8.521 -0.562,1.945 -2.78,3.148 -4.45,3.959 -4.038,1.961 -8.658,2.797 -13.052,3.493 -0.242,0.038 -0.346,-0.329 -0.102,-0.369 3.275,-0.537 19.97,-2.805 17.061,-9.375 -1.123,-2.536 -4.421,-3.99 -6.787,-5.028 -4.42,-1.941 -9.221,-3.033 -13.949,-3.91 -13.946,-2.586 -28.38,-2.542 -42.484,-1.599 -10.036,0.672 -20.727,1.757 -30.089,5.718 -2.955,1.25 -9.23,4.465 -6.669,8.594 1.436,2.314 4.412,3.956 6.785,5.073 3.921,1.844 8.289,2.725 12.546,3.364 18.275,2.74 37.151,0.372 55.44,-1.114 C -0.629,-0.02 -0.314,-0.044 0,-0.068 0.044,-0.072 0.043,-0.004 0,0"/></g><g style="stroke:#000;stroke-width:1.88187921;stroke-miterlimit:4;stroke-opacity:1;stroke-dasharray:none" id="g8261" transform="translate(211.8721,229.7402)"><path style="fill:url(#linearGradient10932);fill-opacity:1;fill-rule:nonzero;stroke:#000;stroke-width:1.88187921;stroke-miterlimit:4;stroke-opacity:1;stroke-dasharray:none" id="path8263" d="m 0,0 c -5.259,-15.27 -3.721,-12.753 -23.521,-12.753 -9.146,0 -30.187,1.573 -36.276,7.652 -3.072,11.941 51.711,4.874 59.43,4.874 L 0,0 z"/></g><g style="stroke:#000;stroke-width:1.88187921;stroke-miterlimit:4;stroke-opacity:1;stroke-dasharray:none" id="g8269" transform="translate(225.3477,226.4785)"><path style="fill:#f15030;fill-opacity:1;fill-rule:nonzero;stroke:#000;stroke-width:1.88187921;stroke-miterlimit:4;stroke-opacity:1;stroke-dasharray:none" id="path8271" d="M 0,0 C 12.667,36 -51.305,147.025 -128,73.333 -208.402,-3.921 -82.667,-86 -82.667,-86 l 0.205,11.814 c 0,0 -111.261,72.662 -39.286,141.819 68.656,65.968 125.923,-33.421 114.584,-65.647 0,0 2.106,-4.654 3.549,-4.294 C -2.173,-1.948 0,0 0,0"/></g><g style="stroke:#000;stroke-width:1.88187921;stroke-miterlimit:4;stroke-opacity:1;stroke-dasharray:none" id="g8273" transform="translate(225.3477,226.4785)"><path style="fill:url(#linearGradient10934);fill-opacity:1;stroke:#000;stroke-width:1.88187921;stroke-linecap:butt;stroke-linejoin:miter;stroke-miterlimit:4;stroke-opacity:1;stroke-dasharray:none" id="path8275" d="M 0,0 C 12.667,36 -51.305,147.025 -128,73.333 -208.402,-3.921 -82.667,-86 -82.667,-86 l 0.205,11.814 c 0,0 -111.261,72.662 -39.286,141.819 68.656,65.968 125.923,-33.421 114.584,-65.647 0,0 2.106,-4.654 3.549,-4.294 C -2.173,-1.948 0,0 0,0 z"/></g></g><path id="path8380" d="m 92.857143,36.116071 c 0.891308,5.193607 2.846843,9.551035 5.401786,13.4375" transform="matrix(2.7425548,0,0,-2.6995686,70.621328,335.42551)" style="fill:none;stroke:#000;stroke-width:.68725234;stroke-linecap:butt;stroke-linejoin:miter;stroke-miterlimit:4;stroke-opacity:1;stroke-dasharray:none"/><path id="path8382" d="m 95.937499,39.642857 c 0,0.123277 -0.10993,0.223214 -0.245536,0.223214 -0.135605,0 -0.245536,-0.09994 -0.245536,-0.223214 0,-0.123278 0.109931,-0.223215 0.245536,-0.223215 0.135606,0 0.245536,0.09994 0.245536,0.223215 z" transform="matrix(2.7425548,0,0,-2.6995686,70.621328,335.42551)" style="color:#000;fill:#000;fill-opacity:1;stroke:#000;stroke-width:.68725234;stroke-linecap:square;stroke-linejoin:miter;stroke-miterlimit:4;stroke-opacity:1;stroke-dasharray:none;stroke-dashoffset:0;marker:none;visibility:visible;display:inline;overflow:visible;enable-background:accumulate"/><path id="path8382-3" d="m 95.937499,39.642857 c 0,0.123277 -0.10993,0.223214 -0.245536,0.223214 -0.135605,0 -0.245536,-0.09994 -0.245536,-0.223214 0,-0.123278 0.109931,-0.223215 0.245536,-0.223215 0.135606,0 0.245536,0.09994 0.245536,0.223215 z" transform="matrix(2.2439084,0,0,-2.6995686,122.80666,332.89466)" style="color:#000;fill:#000;fill-opacity:1;stroke:#000;stroke-width:.75978613;stroke-linecap:square;stroke-linejoin:miter;stroke-miterlimit:4;stroke-opacity:1;stroke-dasharray:none;stroke-dashoffset:0;marker:none;visibility:visible;display:inline;overflow:visible;enable-background:accumulate"/><path id="path8382-4" d="m 95.937499,39.642857 c 0,0.123277 -0.10993,0.223214 -0.245536,0.223214 -0.135605,0 -0.245536,-0.09994 -0.245536,-0.223214 0,-0.123278 0.109931,-0.223215 0.245536,-0.223215 0.135606,0 0.245536,0.09994 0.245536,0.223215 z" transform="matrix(2.7425548,0,0,-2.6995686,76.437015,319.87889)" style="color:#000;fill:#000;fill-opacity:1;stroke:#000;stroke-width:.68725234;stroke-linecap:square;stroke-linejoin:miter;stroke-miterlimit:4;stroke-opacity:1;stroke-dasharray:none;stroke-dashoffset:0;marker:none;visibility:visible;display:inline;overflow:visible;enable-background:accumulate"/><path id="path8382-2" d="m 95.937499,39.642857 c 0,0.123277 -0.10993,0.223214 -0.245536,0.223214 -0.135605,0 -0.245536,-0.09994 -0.245536,-0.223214 0,-0.123278 0.109931,-0.223215 0.245536,-0.223215 0.135606,0 0.245536,0.09994 0.245536,0.223215 z" transform="matrix(1.495939,0,0,-2.6995686,197.25857,328.43555)" style="color:#000;fill:#000;fill-opacity:1;stroke:#000;stroke-width:.93054408;stroke-linecap:square;stroke-linejoin:miter;stroke-miterlimit:4;stroke-opacity:1;stroke-dasharray:none;stroke-dashoffset:0;marker:none;visibility:visible;display:inline;overflow:visible;enable-background:accumulate"/><path id="path8382-5" d="m 95.937499,39.642857 c 0,0.123277 -0.10993,0.223214 -0.245536,0.223214 -0.135605,0 -0.245536,-0.09994 -0.245536,-0.223214 0,-0.123278 0.109931,-0.223215 0.245536,-0.223215 0.135606,0 0.245536,0.09994 0.245536,0.223215 z" transform="matrix(2.7425548,0,0,-2.6995686,73.253691,325.06109)" style="color:#000;fill:#000;fill-opacity:1;stroke:#000;stroke-width:.68725234;stroke-linecap:square;stroke-linejoin:miter;stroke-miterlimit:4;stroke-opacity:1;stroke-dasharray:none;stroke-dashoffset:0;marker:none;visibility:visible;display:inline;overflow:visible;enable-background:accumulate"/><path id="path8382-8" d="m 95.937499,39.642857 c 0,0.123277 -0.10993,0.223214 -0.245536,0.223214 -0.135605,0 -0.245536,-0.09994 -0.245536,-0.223214 0,-0.123278 0.109931,-0.223215 0.245536,-0.223215 0.135606,0 0.245536,0.09994 0.245536,0.223215 z" transform="matrix(1.9945853,0,0,-2.6995686,149.41969,323.85592)" style="color:#000;fill:#000;fill-opacity:1;stroke:#000;stroke-width:.80587482;stroke-linecap:square;stroke-linejoin:miter;stroke-miterlimit:4;stroke-opacity:1;stroke-dasharray:none;stroke-dashoffset:0;marker:none;visibility:visible;display:inline;overflow:visible;enable-background:accumulate"/><path style="color:#000;fill:#000;fill-opacity:1;stroke:#000;stroke-width:.68725234;stroke-linecap:square;stroke-linejoin:miter;stroke-miterlimit:4;stroke-opacity:1;stroke-dasharray:none;stroke-dashoffset:0;marker:none;visibility:visible;display:inline;overflow:visible;enable-background:accumulate" id="path8430" d="m 95.937499,39.642857 c 0,0.123277 -0.10993,0.223214 -0.245536,0.223214 -0.135605,0 -0.245536,-0.09994 -0.245536,-0.223214 0,-0.123278 0.109931,-0.223215 0.245536,-0.223215 0.135606,0 0.245536,0.09994 0.245536,0.223215 z" transform="matrix(2.7425548,0,0,-2.6995686,71.417159,330.24329)"/></g></g></g></svg>