<svg xmlns="http://www.w3.org/2000/svg" xmlns:svg="http://www.w3.org/2000/svg" id="Layer_1" width="100" height="100" x="0" y="0" enable-background="new 0 0 100 100" version="1.1" viewBox="0 0 100 100" xml:space="preserve"><metadata id="metadata39"/><g id="XMLID_1_" transform="matrix(-0.62926829,0.46917522,-0.88438309,-0.75708322,150.50093,26.280882)"><g id="g4"><path id="path6" d="M 73.949,58.042 C 47.593,74.635 40.279,51.381 60.822,37.185 50.619,38.817 45.062,44.449 44.151,54.07 41.352,51.828 40.183,48.955 40.642,45.463 41.088,43.234 41.528,40.999 41.974,38.77 51.699,11.707 84.29,24.282 95.93,3.208 92.219,21.123 92.088,46.612 73.949,58.042 z" style="fill:#000"/></g><g id="g8"><path id="path10" stroke-miterlimit="10" d="M 41.974,38.77 C 51.699,11.707 84.29,24.282 95.93,3.208" style="fill:none;stroke:#000;stroke-linecap:round;stroke-miterlimit:10"/><path id="path12" stroke-miterlimit="10" d="m 40.642,45.462 c 0.446,-2.229 0.886,-4.464 1.332,-6.693" style="fill:none;stroke:#000;stroke-miterlimit:10"/><path id="path14" stroke-miterlimit="10" d="M 95.93,3.208 C 92.219,21.123 92.088,46.612 73.95,58.042 47.594,74.635 40.28,51.381 60.823,37.185 50.62,38.817 45.063,44.449 44.152,54.07 41.353,51.828 40.184,48.955 40.643,45.463" style="fill:none;stroke:#000;stroke-miterlimit:10"/></g></g><g id="XMLID_2_" transform="matrix(0.070605,-1.0670963,1.2548279,0.06004196,-55.390181,68.538258)"><g id="g17"><path id="path19" d="m 43.349,65.554 c 0.239,-1.361 -0.583,-2.865 -0.781,-3.929 -2.713,-7.55 -7.67,-11.745 -16.895,-13.47 -6.593,-1.231 -14.407,3.32 -23.407,3.32 10.835,6.763 11.624,15.219 21.531,21.463 3.785,2.383 11.735,5.482 15.62,1.75 C 39.918,64.665 30.723,62.177 26.127,59 c 6.719,2.722 14.458,4.782 15.162,11.604 1.746,-0.215 2.06,-3.714 2.06,-5.05 z"/></g><g id="g21"><path id="path23" stroke-miterlimit="10" d="M 42.567,61.625 C 39.854,54.075 34.897,49.88 25.672,48.155 19.079,46.924 11.265,51.475 2.265,51.475" style="fill:none;stroke:#000;stroke-linecap:round;stroke-miterlimit:10"/><path id="path25" stroke-miterlimit="10" d="m 43.349,65.554 c 0.239,-1.361 -0.583,-2.865 -0.781,-3.929" style="fill:none;stroke:#000;stroke-miterlimit:10"/><path id="path27" stroke-miterlimit="10" d="m 2.266,51.476 c 10.835,6.763 11.624,15.219 21.531,21.463 3.785,2.383 11.735,5.482 15.62,1.75 0.501,-10.023 -8.694,-12.511 -13.29,-15.688 6.719,2.722 14.458,4.782 15.162,11.604 1.747,-0.217 2.061,-3.716 2.061,-5.052" style="fill:none;stroke:#000;stroke-linecap:round;stroke-miterlimit:10"/></g></g><g id="g29" transform="matrix(1.2327232,-0.20825342,0.39170098,1.6767448,-30.690628,-59.711133)"><g id="g31"><path id="path33" d="m 44.364,56.56 c -1.498,7.293 -3.02,15.106 -2.309,22.571 0.688,7.237 3.493,12.772 5.934,19.502 0.885,2.441 3.012,2.17 3.967,0 1.234,-2.806 1.022,-6.196 0,-9.016 -1,-2.757 -2.04,-5.487 -3.308,-8.133 -0.786,-1.64 -0.577,-1.045 -0.933,-3.594 -0.677,-4.851 0.515,-10.137 1.492,-14.896 0.559,-2.723 0.777,-6.349 -1.006,-8.723 -1.71,-2.276 -3.491,0.602 -3.837,2.289 l 0,0 z"/></g></g></svg>